<?xml version="1.0" encoding="UTF-8" standalone="no"?>
<!-- Created with Inkscape (http://www.inkscape.org/) -->

<svg
   width="100"
   height="100"
   viewBox="0 0 26.458333 26.458333"
   version="1.1"
   id="svg175"
   xmlns="http://www.w3.org/2000/svg"
   xmlns:svg="http://www.w3.org/2000/svg">
  <defs
     id="defs172" />
  <g
     id="layer1">
    <path
       style="fill:#000000;stroke-width:0.191423"
       d="M 11.37651,21.413357 C 8.2079258,20.646646 5.5667082,17.858647 4.9199341,14.597968 4.5480144,12.722948 5.026943,12.334096 5.8085355,13.876495 c 0.6536167,1.289851 1.8117732,2.411361 3.1268545,3.027918 0.9036785,0.423677 1.34825,0.506883 2.708256,0.506883 1.96573,0 3.258287,-0.518756 4.576112,-1.836581 1.317826,-1.317826 1.836582,-2.610382 1.836582,-4.576113 0,-1.3600066 -0.08321,-1.8045776 -0.506883,-2.7082555 C 16.932901,6.975265 15.81139,5.8171091 14.521538,5.1634924 12.97914,4.3818999 13.367992,3.9029706 15.243013,4.274891 c 4.590428,0.9105368 7.746787,5.4393474 6.965668,9.994488 -0.316759,1.847196 -1.016404,3.234523 -2.350357,4.660521 -2.197996,2.349667 -5.291477,3.255431 -8.481814,2.483457 z"
       id="path170" />
    <path
       style="fill:#000000;stroke-width:0.264583"
       id="path295"
       d="M 8.4753816,8.5619418 7.4055933,7.4591397 5.968817,8.0034683 7.0716192,6.9336799 6.5272906,5.4969037 7.5970789,6.5997058 9.0338551,6.0553773 7.931053,7.1251656 Z"
       transform="matrix(1.1666884,-1.8120712,1.8120712,1.1666884,-16.629942,10.434986)" />
    <path
       style="fill:#000000;stroke-width:0.264583"
       id="path295-3"
       d="M 8.4753816,8.5619418 7.4055933,7.4591397 5.968817,8.0034683 7.0716192,6.9336799 6.5272906,5.4969037 7.5970789,6.5997058 9.0338551,6.0553773 7.931053,7.1251656 Z"
       transform="matrix(0.62039247,-0.96357812,0.96357812,0.62039247,-5.6553346,24.766338)" />
    <path
       style="fill:#000000;stroke-width:0.264583"
       id="path295-3-6"
       d="M 8.4753816,8.5619418 7.4055933,7.4591397 5.968817,8.0034683 7.0716192,6.9336799 6.5272906,5.4969037 7.5970789,6.5997058 9.0338551,6.0553773 7.931053,7.1251656 Z"
       transform="matrix(0.62039247,-0.96357812,0.96357812,0.62039247,11.958263,26.622552)" />
    <path
       style="fill:#000000;stroke-width:0.264583"
       id="path295-3-6-5"
       d="M 8.4753816,8.5619418 7.4055933,7.4591397 5.968817,8.0034683 7.0716192,6.9336799 6.5272906,5.4969037 7.5970789,6.5997058 9.0338551,6.0553773 7.931053,7.1251656 Z"
       transform="matrix(0.66661508,-1.0353699,1.0353699,0.66661508,1.194054,16.899422)" />
    <path
       style="fill:#000000;stroke-width:0.264583"
       id="path295-3-6-7"
       d="M 8.4753816,8.5619418 7.4055933,7.4591397 5.968817,8.0034683 7.0716192,6.9336799 6.5272906,5.4969037 7.5970789,6.5997058 9.0338551,6.0553773 7.931053,7.1251656 Z"
       transform="matrix(0.78213422,-1.2147913,1.2147913,0.78213422,8.070766,7.5058078)" />
  </g>
</svg>
